<svg width="258" height="52" viewBox="0 0 258 52" fill="none" xmlns="http://www.w3.org/2000/svg">
<g filter="url(#filter0_b_374_4806)">
<rect width="258" height="52" rx="24" fill="white" fill-opacity="0.12"/>
<path fill-rule="evenodd" clip-rule="evenodd" d="M28 6C39.0457 6 48 14.9542 48 25.9999C48 37.0456 39.0457 46 28 46C16.9544 46 8 37.0456 8 25.9999C8 14.9542 16.9544 6 28 6Z" fill="url(#paint0_linear_374_4806)"/>
<path d="M34 25.134C34.6667 25.5189 34.6667 26.4811 34 26.866L25.75 31.6292C25.0833 32.0141 24.25 31.533 24.25 30.7632L24.25 21.2369C24.25 20.4671 25.0833 19.9859 25.75 20.3708L34 25.134Z" fill="white"/>
<rect x="234" y="41" width="2" height="30" rx="1" transform="rotate(-180 234 41)" fill="#888888"/>
<rect x="134" y="39" width="2" height="26" rx="1" transform="rotate(-180 134 39)" fill="#888888"/>
<rect x="238" y="39" width="2" height="26" rx="1" transform="rotate(-180 238 39)" fill="#888888"/>
<rect x="242" y="36" width="2" height="20" rx="1" transform="rotate(-180 242 36)" fill="#888888"/>
<rect x="190" y="34" width="2" height="16" rx="1" transform="rotate(-180 190 34)" fill="#888888"/>
<rect x="82" y="34" width="2" height="16" rx="1" transform="rotate(-180 82 34)" fill="#888888"/>
<rect x="58" y="29" width="2" height="6" rx="1" transform="rotate(-180 58 29)" fill="#888888"/>
<rect x="130" y="36" width="2" height="20" rx="1" transform="rotate(-180 130 36)" fill="#888888"/>
<rect x="186" y="36" width="2" height="20" rx="1" transform="rotate(-180 186 36)" fill="#888888"/>
<rect x="78" y="39" width="2" height="26" rx="1" transform="rotate(-180 78 39)" fill="#888888"/>
<rect x="226" y="36" width="2" height="20" rx="1" transform="rotate(-180 226 36)" fill="#888888"/>
<rect x="218" y="36" width="2" height="20" rx="1" transform="rotate(-180 218 36)" fill="#888888"/>
<rect x="222" y="33" width="2" height="14" rx="1" transform="rotate(-180 222 33)" fill="#888888"/>
<rect x="66" y="38" width="2" height="24" rx="1" transform="rotate(-180 66 38)" fill="#888888"/>
<rect x="62" y="31" width="2" height="10" rx="1" transform="rotate(-180 62 31)" fill="#888888"/>
<rect x="138" y="38" width="2" height="24" rx="1" transform="rotate(-180 138 38)" fill="#888888"/>
<rect x="126" y="38" width="2" height="24" rx="1" transform="rotate(-180 126 38)" fill="#888888"/>
<rect x="182" y="39" width="2" height="26" rx="1" transform="rotate(-180 182 39)" fill="#888888"/>
<rect x="74" y="36" width="2" height="20" rx="1" transform="rotate(-180 74 36)" fill="#888888"/>
<rect x="230" y="39" width="2" height="26" rx="1" transform="rotate(-180 230 39)" fill="#888888"/>
<rect x="122" y="36" width="2" height="20" rx="1" transform="rotate(-180 122 36)" fill="#888888"/>
<rect x="118" y="34" width="2" height="16" rx="1" transform="rotate(-180 118 34)" fill="#888888"/>
<rect x="178" y="36" width="2" height="20" rx="1" transform="rotate(-180 178 36)" fill="#888888"/>
<rect x="70" y="34" width="2" height="16" rx="1" transform="rotate(-180 70 34)" fill="#888888"/>
<rect x="210" y="38" width="2" height="24" rx="1" transform="rotate(-180 210 38)" fill="#888888"/>
<rect x="214" y="39" width="2" height="26" rx="1" transform="rotate(-180 214 39)" fill="#888888"/>
<rect x="198" y="29" width="2" height="6" rx="1" transform="rotate(-180 198 29)" fill="#888888"/>
<rect x="90" y="36" width="2" height="20" rx="1" transform="rotate(-180 90 36)" fill="#888888"/>
<rect x="146" y="34" width="2" height="16" rx="1" transform="rotate(-180 146 34)" fill="#888888"/>
<rect x="194" y="31" width="2" height="10" rx="1" transform="rotate(-180 194 31)" fill="#888888"/>
<rect x="86" y="36" width="2" height="20" rx="1" transform="rotate(-180 86 36)" fill="#888888"/>
<rect x="142" y="39" width="2" height="26" rx="1" transform="rotate(-180 142 39)" fill="#888888"/>
<rect x="114" y="33" width="2" height="14" rx="1" transform="rotate(-180 114 33)" fill="#888888"/>
<rect x="170" y="33" width="2" height="14" rx="1" transform="rotate(-180 170 33)" fill="#888888"/>
<rect x="174" y="34" width="2" height="16" rx="1" transform="rotate(-180 174 34)" fill="#888888"/>
<rect x="98" y="39" width="2" height="26" rx="1" transform="rotate(-180 98 39)" fill="#888888"/>
<rect x="154" y="33" width="2" height="14" rx="1" transform="rotate(-180 154 33)" fill="#888888"/>
<rect x="202" y="33" width="2" height="14" rx="1" transform="rotate(-180 202 33)" fill="#888888"/>
<rect x="206" y="36" width="2" height="20" rx="1" transform="rotate(-180 206 36)" fill="#888888"/>
<rect x="94" y="39" width="2" height="26" rx="1" transform="rotate(-180 94 39)" fill="#888888"/>
<rect x="150" y="36" width="2" height="20" rx="1" transform="rotate(-180 150 36)" fill="#888888"/>
<rect x="102" y="36" width="2" height="20" rx="1" transform="rotate(-180 102 36)" fill="#888888"/>
<rect x="106" y="36" width="2" height="20" rx="1" transform="rotate(-180 106 36)" fill="#888888"/>
<rect x="110" y="36" width="2" height="20" rx="1" transform="rotate(-180 110 36)" fill="#888888"/>
<rect x="166" y="29" width="2" height="6" rx="1" transform="rotate(-180 166 29)" fill="#888888"/>
<rect x="162" y="31" width="2" height="10" rx="1" transform="rotate(-180 162 31)" fill="#888888"/>
<rect x="158" y="31" width="2" height="10" rx="1" transform="rotate(-180 158 31)" fill="#888888"/>
</g>
<defs>
<filter id="filter0_b_374_4806" x="-50" y="-50" width="358" height="152" filterUnits="userSpaceOnUse" color-interpolation-filters="sRGB">
<feFlood flood-opacity="0" result="BackgroundImageFix"/>
<feGaussianBlur in="BackgroundImageFix" stdDeviation="25"/>
<feComposite in2="SourceAlpha" operator="in" result="effect1_backgroundBlur_374_4806"/>
<feBlend mode="normal" in="SourceGraphic" in2="effect1_backgroundBlur_374_4806" result="shape"/>
</filter>
<linearGradient id="paint0_linear_374_4806" x1="23.7925" y1="53.1293" x2="58.699" y2="24.9012" gradientUnits="userSpaceOnUse">
<stop stop-color="#0958FA"/>
<stop offset="1" stop-color="#09FA32"/>
</linearGradient>
</defs>
</svg>
