<svg width="258" height="52" viewBox="0 0 258 52" fill="none" xmlns="http://www.w3.org/2000/svg">
<g filter="url(#filter0_b_374_4751)">
<rect width="258" height="52" rx="24" fill="white" fill-opacity="0.12"/>
<path fill-rule="evenodd" clip-rule="evenodd" d="M28 46C16.9543 46 8 37.0458 8 26.0001C8 14.9544 16.9543 6 28 6C39.0456 6 48 14.9544 48 26.0001C48 37.0458 39.0456 46 28 46Z" fill="url(#paint0_linear_374_4751)"/>
<path d="M34 25.134C34.6667 25.5189 34.6667 26.4811 34 26.866L25.75 31.6292C25.0833 32.0141 24.25 31.5329 24.25 30.7631L24.25 21.2369C24.25 20.4671 25.0833 19.9859 25.75 20.3708L34 25.134Z" fill="white"/>
<rect x="234" y="40" width="2" height="28" rx="1" transform="rotate(-180 234 40)" fill="#888888"/>
<rect x="134" y="40" width="2" height="28" rx="1" transform="rotate(-180 134 40)" fill="#888888"/>
<rect x="238" y="38" width="2" height="24" rx="1" transform="rotate(-180 238 38)" fill="#888888"/>
<rect x="242" y="35" width="2" height="18" rx="1" transform="rotate(-180 242 35)" fill="#888888"/>
<rect x="190" y="33" width="2" height="15" rx="1" transform="rotate(-180 190 33)" fill="#888888"/>
<rect x="82" y="40" width="2" height="28" rx="1" transform="rotate(-180 82 40)" fill="#888888"/>
<rect x="58" y="29" width="2" height="6" rx="1" transform="rotate(-180 58 29)" fill="#888888"/>
<rect x="130" y="37" width="2" height="22" rx="1" transform="rotate(-180 130 37)" fill="#888888"/>
<rect x="186" y="37" width="2" height="22" rx="1" transform="rotate(-180 186 37)" fill="#888888"/>
<rect x="78" y="38" width="2" height="24" rx="1" transform="rotate(-180 78 38)" fill="#888888"/>
<rect x="226" y="33" width="2" height="15" rx="1" transform="rotate(-180 226 33)" fill="#888888"/>
<rect x="218" y="35" width="2" height="18" rx="1" transform="rotate(-180 218 35)" fill="#888888"/>
<rect x="222" y="32" width="2" height="12" rx="1" transform="rotate(-180 222 32)" fill="#888888"/>
<rect x="66" y="35" width="2" height="18" rx="1" transform="rotate(-180 66 35)" fill="#888888"/>
<rect x="62" y="30" width="2" height="8" rx="1" transform="rotate(-180 62 30)" fill="#888888"/>
<rect x="138" y="41" width="2" height="30" rx="1" transform="rotate(-180 138 41)" fill="#888888"/>
<rect x="126" y="33" width="2" height="15" rx="1" transform="rotate(-180 126 33)" fill="#888888"/>
<rect x="182" y="38" width="2" height="24" rx="1" transform="rotate(-180 182 38)" fill="#888888"/>
<rect x="74" y="40" width="2" height="28" rx="1" transform="rotate(-180 74 40)" fill="#888888"/>
<rect x="230" y="38" width="2" height="24" rx="1" transform="rotate(-180 230 38)" fill="#888888"/>
<rect x="122" y="33" width="2" height="15" rx="1" transform="rotate(-180 122 33)" fill="#888888"/>
<rect x="118" y="30" width="2" height="8" rx="1" transform="rotate(-180 118 30)" fill="#888888"/>
<rect x="178" y="41" width="2" height="30" rx="1" transform="rotate(-180 178 41)" fill="#888888"/>
<rect x="70" y="37" width="2" height="22" rx="1" transform="rotate(-180 70 37)" fill="#888888"/>
<rect x="210" y="37" width="2" height="22" rx="1" transform="rotate(-180 210 37)" fill="#888888"/>
<rect x="214" y="38" width="2" height="24" rx="1" transform="rotate(-180 214 38)" fill="#888888"/>
<rect x="198" y="29" width="2" height="6" rx="1" transform="rotate(-180 198 29)" fill="#888888"/>
<rect x="90" y="37" width="2" height="22" rx="1" transform="rotate(-180 90 37)" fill="#888888"/>
<rect x="146" y="35" width="2" height="18" rx="1" transform="rotate(-180 146 35)" fill="#888888"/>
<rect x="194" y="30" width="2" height="8" rx="1" transform="rotate(-180 194 30)" fill="#888888"/>
<rect x="86" y="41" width="2" height="30" rx="1" transform="rotate(-180 86 41)" fill="#888888"/>
<rect x="142" y="40" width="2" height="28" rx="1" transform="rotate(-180 142 40)" fill="#888888"/>
<rect x="114" y="30" width="2" height="8" rx="1" transform="rotate(-180 114 30)" fill="#888888"/>
<rect x="170" y="37" width="2" height="22" rx="1" transform="rotate(-180 170 37)" fill="#888888"/>
<rect x="174" y="40" width="2" height="28" rx="1" transform="rotate(-180 174 40)" fill="#888888"/>
<rect x="98" y="41" width="2" height="30" rx="1" transform="rotate(-180 98 41)" fill="#888888"/>
<rect x="154" y="32" width="2" height="12" rx="1" transform="rotate(-180 154 32)" fill="#888888"/>
<rect x="202" y="30" width="2" height="8" rx="1" transform="rotate(-180 202 30)" fill="#888888"/>
<rect x="206" y="33" width="2" height="15" rx="1" transform="rotate(-180 206 33)" fill="#888888"/>
<rect x="94" y="38" width="2" height="24" rx="1" transform="rotate(-180 94 38)" fill="#888888"/>
<rect x="150" y="32" width="2" height="12" rx="1" transform="rotate(-180 150 32)" fill="#888888"/>
<rect x="102" y="40" width="2" height="28" rx="1" transform="rotate(-180 102 40)" fill="#888888"/>
<rect x="106" y="37" width="2" height="22" rx="1" transform="rotate(-180 106 37)" fill="#888888"/>
<rect x="110" y="33" width="2" height="15" rx="1" transform="rotate(-180 110 33)" fill="#888888"/>
<rect x="166" y="29" width="2" height="6" rx="1" transform="rotate(-180 166 29)" fill="#888888"/>
<rect x="162" y="30" width="2" height="8" rx="1" transform="rotate(-180 162 30)" fill="#888888"/>
<rect x="158" y="30" width="2" height="8" rx="1" transform="rotate(-180 158 30)" fill="#888888"/>
</g>
<defs>
<filter id="filter0_b_374_4751" x="-50" y="-50" width="358" height="152" filterUnits="userSpaceOnUse" color-interpolation-filters="sRGB">
<feFlood flood-opacity="0" result="BackgroundImageFix"/>
<feGaussianBlur in="BackgroundImageFix" stdDeviation="25"/>
<feComposite in2="SourceAlpha" operator="in" result="effect1_backgroundBlur_374_4751"/>
<feBlend mode="normal" in="SourceGraphic" in2="effect1_backgroundBlur_374_4751" result="shape"/>
</filter>
<linearGradient id="paint0_linear_374_4751" x1="32.2075" y1="-1.12934" x2="-2.69899" y2="27.0988" gradientUnits="userSpaceOnUse">
<stop stop-color="#0958FA"/>
<stop offset="1" stop-color="#09FA32"/>
</linearGradient>
</defs>
</svg>
