<svg width="8" height="27" viewBox="0 0 8 27" fill="none" xmlns="http://www.w3.org/2000/svg">
<path d="M0.924 0.0999982H7.806L6.659 17.009H2.071L0.924 0.0999982ZM4.365 26.296C3.35367 26.296 2.50267 25.9753 1.812 25.334C1.146 24.668 0.813 23.8663 0.813 22.929C0.813 21.9917 1.146 21.2147 1.812 20.598C2.478 19.9567 3.329 19.636 4.365 19.636C5.401 19.636 6.252 19.9567 6.918 20.598C7.584 21.2147 7.917 21.9917 7.917 22.929C7.917 23.8663 7.57167 24.668 6.881 25.334C6.215 25.9753 5.37633 26.296 4.365 26.296Z" fill="white"/>
</svg>
