<svg width="27" height="27" viewBox="0 0 27 27" fill="none" xmlns="http://www.w3.org/2000/svg">
<path d="M4.95959 0H22.0404C22.6917 0 23.3366 0.13338 23.9384 0.392523C24.5401 0.651667 25.0868 1.0315 25.5474 1.51034C26.0079 1.98917 26.3732 2.55763 26.6225 3.18326C26.8717 3.80889 27 4.47943 27 5.15661V21.8434C27 22.5206 26.8717 23.1911 26.6225 23.8167C26.3732 24.4424 26.0079 25.0108 25.5474 25.4897C25.0868 25.9685 24.5401 26.3483 23.9384 26.6075C23.3366 26.8666 22.6917 27 22.0404 27H4.95959C3.64422 27 2.38273 26.4567 1.45263 25.4897C0.522527 24.5226 0 23.211 0 21.8434V5.15661C0 3.78899 0.522527 2.47739 1.45263 1.51034C2.38273 0.543284 3.64422 0 4.95959 0Z" fill="#3B5998"/>
<path d="M10.2164 13.9744H11.7341V20.4821C11.7341 20.545 11.7581 20.6053 11.8009 20.6498C11.8437 20.6943 11.9017 20.7193 11.9622 20.7193H14.5412C14.5711 20.7193 14.6008 20.7131 14.6285 20.7012C14.6562 20.6893 14.6813 20.6718 14.7025 20.6498C14.7237 20.6278 14.7405 20.6016 14.752 20.5728C14.7634 20.5441 14.7693 20.5132 14.7693 20.4821V14.0054H16.5151C16.5702 14.0038 16.6231 13.9823 16.6647 13.9447C16.7063 13.9071 16.7341 13.8556 16.7432 13.7991L17.0011 11.3961C17.0052 11.3633 17.0029 11.33 16.9944 11.2981C16.9859 11.2662 16.9713 11.2364 16.9515 11.2105C16.9057 11.1659 16.8457 11.1402 16.7829 11.1383H14.7991V9.63256C14.7991 9.17878 15.0272 8.95188 15.4934 8.95188H16.8127C16.8603 8.94652 16.9051 8.92569 16.9407 8.89238C16.9763 8.85906 17.0009 8.81493 17.0111 8.76625V6.51797C17.0111 6.45506 16.987 6.39472 16.9442 6.35024C16.9015 6.30575 16.8434 6.28076 16.7829 6.28076H14.8884C14.05 6.28117 13.2399 6.5961 12.6069 7.1677C12.3094 7.43861 12.0812 7.78205 11.9427 8.16723C11.8042 8.55242 11.7598 8.96731 11.8134 9.37473V11.1383H10.2164C10.1576 11.1382 10.101 11.1618 10.0585 11.2041C10.016 11.2464 9.99084 11.3041 9.98828 11.3652V13.7372C9.98828 13.8001 10.0123 13.8605 10.0551 13.9049C10.0979 13.9494 10.1559 13.9744 10.2164 13.9744Z" fill="white"/>
</svg>
