<svg width="27" height="27" viewBox="0 0 27 27" fill="none" xmlns="http://www.w3.org/2000/svg">
<rect width="27" height="27" rx="6" fill="url(#paint0_linear_374_3681)"/>
<path d="M13.5 8C12.0413 8 10.6424 8.57946 9.61091 9.61091C8.57946 10.6424 8 12.0413 8 13.5C8 14.9587 8.57946 16.3576 9.61091 17.3891C10.6424 18.4205 12.0413 19 13.5 19C14.9587 19 16.3576 18.4205 17.3891 17.3891C18.4205 16.3576 19 14.9587 19 13.5C19 12.0413 18.4205 10.6424 17.3891 9.61091C16.3576 8.57946 14.9587 8 13.5 8ZM13.5 17.0719C12.5524 17.0719 11.6435 16.6955 10.9734 16.0254C10.3034 15.3553 9.9269 14.4465 9.9269 13.4988C9.9269 12.5512 10.3034 11.6423 10.9734 10.9722C11.6435 10.3022 12.5524 9.92571 13.5 9.92571C14.4476 9.92571 15.3565 10.3022 16.0266 10.9722C16.6966 11.6423 17.0731 12.5512 17.0731 13.4988C17.0731 14.4465 16.6966 15.3553 16.0266 16.0254C15.3565 16.6955 14.4476 17.0719 13.5 17.0719Z" fill="white"/>
<path d="M19 9C19.5523 9 20 8.55228 20 8C20 7.44771 19.5523 7 19 7C18.4477 7 18 7.44771 18 8C18 8.55228 18.4477 9 19 9Z" fill="white"/>
<path d="M23.4437 6.61643C23.1738 5.92037 22.7612 5.28825 22.2325 4.76055C21.7038 4.23284 21.0705 3.82117 20.3733 3.5519C19.5574 3.24609 18.6954 3.08074 17.8241 3.06287C16.7011 3.01397 16.3454 3 13.4977 3C10.6499 3 10.2849 3 9.17126 3.06287C8.3006 3.07982 7.43924 3.24521 6.62439 3.5519C5.92696 3.82086 5.29354 4.23242 4.76477 4.76016C4.236 5.28791 3.82357 5.92019 3.55392 6.61643C3.24758 7.43102 3.08235 8.29173 3.0653 9.16168C3.01516 10.2818 3 10.6369 3 13.4814C3 16.3247 3 16.6868 3.0653 17.8011C3.0828 18.672 3.24722 19.5313 3.55392 20.3475C3.82432 21.0435 4.23716 21.6755 4.76606 22.2032C5.29495 22.7308 5.92827 23.1426 6.62556 23.412C7.43887 23.7301 8.30058 23.9073 9.17359 23.936C10.2966 23.9849 10.6523 24 13.5 24C16.3477 24 16.7127 24 17.8264 23.936C18.6976 23.9183 19.5596 23.7533 20.3756 23.4481C21.0727 23.1782 21.7057 22.7662 22.2344 22.2383C22.7631 21.7105 23.1758 21.0784 23.4461 20.3824C23.7528 19.5674 23.9172 18.7081 23.9347 17.8372C23.9848 16.7171 24 16.3619 24 13.5175C24 10.673 24 10.312 23.9347 9.19777C23.9211 8.31552 23.755 7.44224 23.4437 6.61643ZM22.0234 17.7149C22.0159 18.3859 21.8932 19.0507 21.6607 19.6803C21.4856 20.1331 21.2175 20.5442 20.8736 20.8874C20.5298 21.2305 20.1178 21.4979 19.6643 21.6725C19.0406 21.9035 18.3819 22.026 17.7168 22.0346C16.609 22.0858 16.2964 22.0986 13.4557 22.0986C10.6126 22.0986 10.3222 22.0986 9.19341 22.0346C8.52863 22.0265 7.87021 21.904 7.24711 21.6725C6.79195 21.499 6.37833 21.232 6.03302 20.8888C5.68771 20.5457 5.4184 20.1339 5.2425 19.6803C5.01329 19.0574 4.89069 18.4005 4.87983 17.737C4.82969 16.6309 4.81803 16.3189 4.81803 13.4825C4.81803 10.645 4.81803 10.3551 4.87983 9.22688C4.88737 8.55625 5.01004 7.89187 5.2425 7.26264C5.59818 6.34398 6.32702 5.62092 7.24711 5.26929C7.87052 5.03892 8.52874 4.91646 9.19341 4.90719C10.3024 4.85712 10.6138 4.84315 13.4557 4.84315C16.2976 4.84315 16.5891 4.84315 17.7168 4.90719C18.382 4.91518 19.0408 5.03767 19.6643 5.26929C20.1178 5.44426 20.5297 5.71198 20.8735 6.05526C21.2173 6.39854 21.4855 6.8098 21.6607 7.26264C21.8899 7.8855 22.0125 8.54244 22.0234 9.20592C22.0735 10.3132 22.0863 10.6241 22.0863 13.4616C22.0863 16.2979 22.0864 16.603 22.0362 17.7161H22.0234V17.7149Z" fill="white"/>
<defs>
<linearGradient id="paint0_linear_374_3681" x1="41.5385" y1="-20.7692" x2="-3.11539" y2="39.4615" gradientUnits="userSpaceOnUse">
<stop stop-color="#405DE6"/>
<stop offset="0.197917" stop-color="#5851DB"/>
<stop offset="0.401042" stop-color="#833AB4"/>
<stop offset="0.598958" stop-color="#C13584"/>
<stop offset="0.807292" stop-color="#E1306C"/>
<stop offset="1" stop-color="#FD1D1D"/>
</linearGradient>
</defs>
</svg>
