<svg width="18" height="18" viewBox="0 0 18 18" fill="none" xmlns="http://www.w3.org/2000/svg">
<path d="M7.50001 10.3201C7.74865 10.3201 7.9871 10.4189 8.16292 10.5947C8.33874 10.7705 8.43751 11.009 8.43751 11.2576C8.43751 11.5062 8.33874 11.7447 8.16292 11.9205C7.9871 12.0963 7.74865 12.1951 7.50001 12.1951C7.25137 12.1951 7.01291 12.0963 6.8371 11.9205C6.66128 11.7447 6.56251 11.5062 6.56251 11.2576C6.56251 11.009 6.66128 10.7705 6.8371 10.5947C7.01291 10.4189 7.25137 10.3201 7.50001 10.3201ZM7.50001 3.0046C9.04651 3.0046 10.2795 4.2736 10.2795 5.9296C10.2795 6.8086 9.95851 7.2916 9.18901 7.9066L8.77351 8.2291C8.40451 8.5201 8.28001 8.6791 8.25451 8.9011L8.23801 9.1351C8.20462 9.31952 8.10339 9.48476 7.95426 9.59827C7.80512 9.71179 7.61889 9.76535 7.43224 9.74842C7.24559 9.73148 7.07204 9.64528 6.94577 9.50678C6.8195 9.36828 6.74966 9.18752 6.75001 9.0001C6.75001 8.1451 7.06501 7.6741 7.82401 7.0681L8.24101 6.7456C8.67301 6.4006 8.78101 6.2326 8.78101 5.9296C8.78101 5.0926 8.20801 4.5046 7.50001 4.5046C6.75901 4.5046 6.21151 5.0536 6.22051 5.9221C6.2225 6.12102 6.14539 6.31257 6.00614 6.45463C5.93719 6.52497 5.85507 6.58104 5.76445 6.61964C5.67383 6.65824 5.5765 6.67862 5.47801 6.6796C5.27909 6.68159 5.08754 6.60448 4.94548 6.46524C4.80342 6.32599 4.7225 6.13602 4.72051 5.9371C4.70401 4.2301 5.92801 3.0046 7.50001 3.0046ZM6.96235e-06 7.5001C0.00061873 5.87716 0.527659 4.29819 1.502 3.00027C2.47635 1.70234 3.84542 0.755488 5.40369 0.301859C6.96195 -0.151771 8.62531 -0.0876981 10.1441 0.484458C11.6628 1.05661 12.955 2.10598 13.8266 3.47501C14.6982 4.84404 15.1022 6.45887 14.978 8.07705C14.8538 9.69524 14.208 11.2295 13.1376 12.4494C12.0672 13.6693 10.63 14.5092 9.0417 14.8428C7.45341 15.1764 5.79976 14.9858 4.32901 14.2996L0.897007 14.9851C0.776023 15.0092 0.650966 15.0031 0.532916 14.9673C0.414867 14.9315 0.30747 14.8671 0.220243 14.7799C0.133015 14.6926 0.0686501 14.5852 0.0328504 14.4672C-0.00294925 14.3491 -0.00907823 14.2241 0.0150069 14.1031L0.700507 10.6696C0.237651 9.67717 -0.00148758 8.59516 6.96235e-06 7.5001ZM7.50001 1.5001C6.47299 1.49984 5.4631 1.76321 4.56701 2.26499C3.67091 2.76677 2.91862 3.49017 2.38215 4.36593C1.84567 5.24169 1.54297 6.2405 1.50303 7.26674C1.46308 8.29298 1.68723 9.31229 2.15401 10.2271C2.23104 10.3778 2.25483 10.5502 2.22151 10.7161L1.70551 13.2946L4.28401 12.7786C4.44995 12.7453 4.62229 12.7691 4.77301 12.8461C5.58109 13.2579 6.47201 13.4811 7.37878 13.4989C8.28554 13.5168 9.18456 13.3289 10.0082 12.9493C10.8319 12.5697 11.5589 12.0083 12.1343 11.3074C12.7098 10.6064 13.1189 9.7841 13.3309 8.90227C13.5428 8.02044 13.5521 7.10203 13.358 6.2161C13.1639 5.33017 12.7715 4.49976 12.2103 3.78731C11.6491 3.07486 10.9337 2.49891 10.1178 2.10276C9.30199 1.7066 8.40695 1.50055 7.50001 1.5001ZM5.79001 16.3381C7.12281 17.4161 8.78582 18.0029 10.5 18.0001C11.631 18.0001 12.705 17.7496 13.6695 17.2996L17.103 17.9851C17.224 18.0092 17.3491 18.0031 17.4671 17.9673C17.5851 17.9315 17.6925 17.8671 17.7798 17.7799C17.867 17.6926 17.9314 17.5852 17.9672 17.4672C18.003 17.3491 18.0091 17.2241 17.985 17.1031L17.2995 13.6711C17.7495 12.7066 18 11.6311 18 10.5001C18.0025 8.78643 17.4157 7.124 16.338 5.7916C16.5517 6.90209 16.5553 8.04281 16.3485 9.1546C16.663 10.5291 16.4852 11.9703 15.846 13.2271C15.769 13.3778 15.7452 13.5502 15.7785 13.7161L16.2945 16.2946L13.7145 15.7786C13.549 15.7456 13.3773 15.7694 13.227 15.8461C11.97 16.4863 10.5279 16.6641 9.15301 16.3486C8.04121 16.5553 6.9005 16.5518 5.79001 16.3381Z" fill="white"/>
</svg>
