<svg width="27" height="27" viewBox="0 0 27 27" fill="none" xmlns="http://www.w3.org/2000/svg">
<path d="M4.97054 0H22.0295C23.3477 0 24.612 0.543284 25.5442 1.51034C26.4763 2.47739 27 3.78899 27 5.15661V21.8434C27 23.211 26.4763 24.5226 25.5442 25.4897C24.612 26.4567 23.3477 27 22.0295 27H4.97054C3.65227 27 2.388 26.4567 1.45584 25.4897C0.523681 24.5226 0 23.211 0 21.8434V5.15661C0 3.78899 0.523681 2.47739 1.45584 1.51034C2.388 0.543284 3.65227 0 4.97054 0Z" fill="#1FAEE9"/>
<path d="M20.7259 9.37514C20.4192 9.51686 20.1016 9.63185 19.7764 9.71893C20.1267 9.3502 20.3842 8.89828 20.5265 8.40272C20.5384 8.37137 20.5402 8.33689 20.5318 8.30437C20.5233 8.27185 20.5049 8.24301 20.4794 8.22211C20.4539 8.2012 20.4225 8.18933 20.39 8.18825C20.3574 8.18717 20.3254 8.19693 20.2986 8.2161C19.8389 8.49588 19.3435 8.70749 18.827 8.84473H18.732C18.6374 8.84805 18.5453 8.81277 18.4757 8.74651C17.9271 8.26389 17.2303 7.99923 16.5102 8C16.1885 8.00103 15.8686 8.05067 15.5608 8.14734C15.0781 8.30255 14.643 8.58534 14.2983 8.96776C13.9536 9.35018 13.7113 9.819 13.5954 10.3279C13.5043 10.7033 13.4786 11.0924 13.5194 11.4771C13.5194 11.4771 13.5194 11.5459 13.5194 11.5656C13.4918 11.5761 13.4615 11.5761 13.4339 11.5656C12.3738 11.4735 11.3425 11.1618 10.4013 10.6488C9.46005 10.1358 8.62828 9.43204 7.95548 8.57953C7.94176 8.55722 7.92282 8.53885 7.90041 8.52612C7.87801 8.51339 7.85286 8.50672 7.8273 8.50672C7.80174 8.50672 7.77659 8.51339 7.75419 8.52612C7.73178 8.53885 7.71284 8.55722 7.69912 8.57953C7.43203 9.05723 7.29122 9.59926 7.29085 10.1511C7.2869 10.5672 7.36387 10.9799 7.5172 11.3647C7.67052 11.7494 7.89706 12.0983 8.18335 12.3906C7.94414 12.3326 7.71401 12.24 7.49973 12.1156C7.47584 12.1024 7.4491 12.0956 7.422 12.0958C7.39489 12.0961 7.36829 12.1034 7.34464 12.1171C7.32099 12.1308 7.30105 12.1504 7.28667 12.1742C7.27229 12.198 7.26393 12.2251 7.26236 12.2531H7.23388C7.2283 12.858 7.39209 13.4516 7.70547 13.9623C8.01884 14.473 8.46841 14.8789 8.9999 15.1311H8.96192C8.78944 15.1309 8.61751 15.1112 8.4492 15.0722C8.4224 15.0699 8.39546 15.0742 8.37057 15.0848C8.34568 15.0953 8.32354 15.1118 8.30596 15.1328C8.28838 15.1539 8.27586 15.1789 8.2694 15.2059C8.26294 15.233 8.26274 15.2612 8.26881 15.2883C8.44104 15.835 8.75539 16.3221 9.17741 16.6964C9.59944 17.0706 10.1129 17.3174 10.6615 17.4099C9.74307 18.0551 8.65735 18.3976 7.5472 18.3922H7.23388C7.18252 18.3922 7.13254 18.4094 7.09146 18.4413C7.05037 18.4731 7.02039 18.518 7.006 18.569C6.99462 18.6214 6.9995 18.6762 7.01996 18.7255C7.04042 18.7749 7.0754 18.8164 7.11994 18.844C8.28705 19.5307 9.59416 19.9233 10.9353 19.9898C12.2764 20.0564 13.6139 19.7951 14.8392 19.2271C15.8289 18.7492 16.7116 18.0634 17.4312 17.2135C18.7957 15.6185 19.5577 13.5676 19.577 11.4379V11.3887C19.5795 11.3101 19.5976 11.2329 19.6303 11.1619C19.6629 11.0909 19.7095 11.0277 19.7669 10.9762C20.2333 10.5906 20.6399 10.1335 20.9728 9.62071C20.9922 9.59065 21.0017 9.55488 20.9998 9.51877C20.9978 9.48267 20.9847 9.44818 20.9622 9.42049C20.9397 9.39281 20.9091 9.37341 20.8751 9.36524C20.841 9.35706 20.8054 9.36054 20.7734 9.37514H20.7259Z" fill="white"/>
</svg>
