<svg width="27" height="27" viewBox="0 0 27 27" fill="none" xmlns="http://www.w3.org/2000/svg">
<rect width="27" height="27" rx="6" fill="white"/>
<path d="M13.513 21H13.492C13.4269 21 6.91919 20.9872 5.2773 20.5322C4.83366 20.4102 4.4292 20.1715 4.10441 19.8399C3.77962 19.5083 3.54589 19.0955 3.42663 18.6427C3.13139 16.9431 2.98881 15.2196 3.00068 13.4936C2.99306 11.7647 3.13949 10.0387 3.43817 8.33693C3.5608 7.88343 3.79561 7.46971 4.12006 7.13546C4.4445 6.80122 4.84769 6.55767 5.29094 6.4282C6.88771 6 13.2161 6 13.4847 6H13.5067C13.5728 6 20.0973 6.01285 21.7224 6.46781C22.6236 6.71724 23.3276 7.43556 23.571 8.35512C23.8752 10.0615 24.019 11.7925 23.998 13.5268C24.0053 15.2535 23.8586 16.9774 23.5595 18.677C23.4386 19.1292 23.204 19.5414 22.8788 19.8725C22.5536 20.2035 22.1491 20.442 21.7056 20.5643C20.111 20.9957 13.7816 21 13.513 21ZM11.4147 10.2874L11.4095 16.7105L16.8775 13.4989L11.4147 10.2874Z" fill="#C50F0F"/>
</svg>
