<svg width="68" height="23" viewBox="0 0 68 23" fill="none" xmlns="http://www.w3.org/2000/svg">
<path fill-rule="evenodd" clip-rule="evenodd" d="M8.16025 5.72184L0 1.80287L0.86583 0L9.02608 3.91897C10.8463 4.79315 12.9651 4.79315 14.7854 3.91897L19.6331 1.59087C22.0006 0.453849 24.7565 0.453848 27.1241 1.59087L31.7897 3.83154C33.6994 4.74869 35.9318 4.7013 37.8009 3.70393L41.2859 1.84428C43.717 0.547034 46.6206 0.485395 49.1045 1.6783L53.6834 3.87731C55.5464 4.77205 57.7196 4.74996 59.564 3.81752L67.0978 0.00898939L68.0001 1.79388L60.4664 5.60241C58.0673 6.8152 55.2408 6.84394 52.8175 5.68018L48.2387 3.48117C46.3289 2.56402 44.0965 2.61141 42.2275 3.60878L38.7424 5.46843C36.3114 6.76568 33.4078 6.82732 30.9239 5.63441L26.2582 3.39374C24.438 2.51956 22.3192 2.51956 20.4989 3.39374L15.6512 5.72184C13.2837 6.85886 10.5278 6.85886 8.16025 5.72184ZM8.16025 13.4357L0 9.51674L0.86583 7.71387L9.02608 11.6328C10.8463 12.507 12.9651 12.507 14.7854 11.6328L19.6331 9.30474C22.0006 8.16772 24.7565 8.16772 27.1241 9.30474L31.7897 11.5454C33.6994 12.4626 35.9318 12.4152 37.8009 11.4178L41.2859 9.55815C43.717 8.2609 46.6206 8.19926 49.1045 9.39217L53.6834 11.5912C55.5464 12.4859 57.7196 12.4638 59.564 11.5314L67.0978 7.72286L68.0001 9.50775L60.4664 13.3163C58.0673 14.5291 55.2408 14.5578 52.8175 13.3941L48.2387 11.195C46.3289 10.2779 44.0965 10.3253 42.2275 11.3226L38.7424 13.1823C36.3114 14.4795 33.4078 14.5412 30.9239 13.3483L26.2582 11.1076C24.438 10.2334 22.3192 10.2334 20.4989 11.1076L15.6512 13.4357C13.2837 14.5727 10.5278 14.5727 8.16025 13.4357ZM0 17.2304L8.16025 21.1493C10.5278 22.2864 13.2837 22.2864 15.6512 21.1493L20.4989 18.8212C22.3192 17.947 24.438 17.947 26.2582 18.8212L30.9239 21.0619C33.4078 22.2548 36.3114 22.1932 38.7424 20.8959L42.2275 19.0363C44.0965 18.0389 46.3289 17.9915 48.2387 18.9087L52.8175 21.1077C55.2408 22.2714 58.0673 22.2427 60.4664 21.0299L68.0001 17.2214L67.0978 15.4365L59.564 19.245C57.7196 20.1774 55.5464 20.1995 53.6834 19.3048L49.1045 17.1058C46.6206 15.9129 43.717 15.9745 41.2859 17.2718L37.8009 19.1314C35.9318 20.1288 33.6994 20.1762 31.7897 19.259L27.1241 17.0184C24.7565 15.8813 22.0006 15.8813 19.6331 17.0184L14.7854 19.3465C12.9651 20.2206 10.8463 20.2206 9.02608 19.3465L0.86583 15.4275L0 17.2304Z" fill="url(#paint0_linear_374_5094)"/>
<defs>
<linearGradient id="paint0_linear_374_5094" x1="26.8472" y1="25.9238" x2="40.3914" y2="-7.92719" gradientUnits="userSpaceOnUse">
<stop stop-color="#0958FA"/>
<stop offset="1" stop-color="#09FA32"/>
</linearGradient>
</defs>
</svg>
